<?xml version="1.0" encoding="utf-8"?>
<svg xmlns="http://www.w3.org/2000/svg" xmlns:xlink="http://www.w3.org/1999/xlink" width="400" height="400" viewBox="0 0 1600 1600">
<defs>
  <clipPath id="clip4600">
    <rect x="0" y="0" width="1600" height="1600"/>
  </clipPath>
</defs>
<path clip-path="url(#clip4600)" d="
M0 1600 L1600 1600 L1600 0 L0 0  Z
  " fill="#ffffff" fill-rule="evenodd" fill-opacity="1"/>
<defs>
  <clipPath id="clip4601">
    <rect x="320" y="160" width="1121" height="1121"/>
  </clipPath>
</defs>
<path clip-path="url(#clip4600)" d="
M166.862 1469.17 L1552.76 1469.17 L1552.76 47.2441 L166.862 47.2441  Z
  " fill="#ffffff" fill-rule="evenodd" fill-opacity="1"/>
<defs>
  <clipPath id="clip4602">
    <rect x="166" y="47" width="1387" height="1423"/>
  </clipPath>
</defs>
<polyline clip-path="url(#clip4602)" style="stroke:#000000; stroke-width:2; stroke-opacity:0.1; fill:none" points="
  206.085,1469.17 206.085,47.2441 
  "/>
<polyline clip-path="url(#clip4602)" style="stroke:#000000; stroke-width:2; stroke-opacity:0.1; fill:none" points="
  532.947,1469.17 532.947,47.2441 
  "/>
<polyline clip-path="url(#clip4602)" style="stroke:#000000; stroke-width:2; stroke-opacity:0.1; fill:none" points="
  859.809,1469.17 859.809,47.2441 
  "/>
<polyline clip-path="url(#clip4602)" style="stroke:#000000; stroke-width:2; stroke-opacity:0.1; fill:none" points="
  1186.67,1469.17 1186.67,47.2441 
  "/>
<polyline clip-path="url(#clip4602)" style="stroke:#000000; stroke-width:2; stroke-opacity:0.1; fill:none" points="
  1513.53,1469.17 1513.53,47.2441 
  "/>
<polyline clip-path="url(#clip4602)" style="stroke:#000000; stroke-width:2; stroke-opacity:0.1; fill:none" points="
  166.862,1428.92 1552.76,1428.92 
  "/>
<polyline clip-path="url(#clip4602)" style="stroke:#000000; stroke-width:2; stroke-opacity:0.1; fill:none" points="
  166.862,1093.57 1552.76,1093.57 
  "/>
<polyline clip-path="url(#clip4602)" style="stroke:#000000; stroke-width:2; stroke-opacity:0.1; fill:none" points="
  166.862,758.206 1552.76,758.206 
  "/>
<polyline clip-path="url(#clip4602)" style="stroke:#000000; stroke-width:2; stroke-opacity:0.1; fill:none" points="
  166.862,422.847 1552.76,422.847 
  "/>
<polyline clip-path="url(#clip4602)" style="stroke:#000000; stroke-width:2; stroke-opacity:0.1; fill:none" points="
  166.862,87.4872 1552.76,87.4872 
  "/>
<polyline clip-path="url(#clip4600)" style="stroke:#000000; stroke-width:4; stroke-opacity:1; fill:none" points="
  166.862,1469.17 1552.76,1469.17 
  "/>
<polyline clip-path="url(#clip4600)" style="stroke:#000000; stroke-width:4; stroke-opacity:1; fill:none" points="
  166.862,1469.17 166.862,47.2441 
  "/>
<polyline clip-path="url(#clip4600)" style="stroke:#000000; stroke-width:4; stroke-opacity:1; fill:none" points="
  206.085,1469.17 206.085,1452.1 
  "/>
<polyline clip-path="url(#clip4600)" style="stroke:#000000; stroke-width:4; stroke-opacity:1; fill:none" points="
  532.947,1469.17 532.947,1452.1 
  "/>
<polyline clip-path="url(#clip4600)" style="stroke:#000000; stroke-width:4; stroke-opacity:1; fill:none" points="
  859.809,1469.17 859.809,1452.1 
  "/>
<polyline clip-path="url(#clip4600)" style="stroke:#000000; stroke-width:4; stroke-opacity:1; fill:none" points="
  1186.67,1469.17 1186.67,1452.1 
  "/>
<polyline clip-path="url(#clip4600)" style="stroke:#000000; stroke-width:4; stroke-opacity:1; fill:none" points="
  1513.53,1469.17 1513.53,1452.1 
  "/>
<polyline clip-path="url(#clip4600)" style="stroke:#000000; stroke-width:4; stroke-opacity:1; fill:none" points="
  166.862,1428.92 183.493,1428.92 
  "/>
<polyline clip-path="url(#clip4600)" style="stroke:#000000; stroke-width:4; stroke-opacity:1; fill:none" points="
  166.862,1093.57 183.493,1093.57 
  "/>
<polyline clip-path="url(#clip4600)" style="stroke:#000000; stroke-width:4; stroke-opacity:1; fill:none" points="
  166.862,758.206 183.493,758.206 
  "/>
<polyline clip-path="url(#clip4600)" style="stroke:#000000; stroke-width:4; stroke-opacity:1; fill:none" points="
  166.862,422.847 183.493,422.847 
  "/>
<polyline clip-path="url(#clip4600)" style="stroke:#000000; stroke-width:4; stroke-opacity:1; fill:none" points="
  166.862,87.4872 183.493,87.4872 
  "/>
<path clip-path="url(#clip4600)" d="M 0 0 M174.095 1487.16 Q170.484 1487.16 168.655 1490.72 Q166.85 1494.27 166.85 1501.39 Q166.85 1508.5 168.655 1512.07 Q170.484 1515.61 174.095 1515.61 Q177.729 1515.61 179.535 1512.07 Q181.363 1508.5 181.363 1501.39 Q181.363 1494.27 179.535 1490.72 Q177.729 1487.16 174.095 1487.16 M174.095 1483.45 Q179.905 1483.45 182.961 1488.06 Q186.039 1492.64 186.039 1501.39 Q186.039 1510.12 182.961 1514.73 Q179.905 1519.31 174.095 1519.31 Q168.285 1519.31 165.206 1514.73 Q162.15 1510.12 162.15 1501.39 Q162.15 1492.64 165.206 1488.06 Q168.285 1483.45 174.095 1483.45 Z" fill="#000000" fill-rule="evenodd" fill-opacity="1" /><path clip-path="url(#clip4600)" d="M 0 0 M191.109 1512.76 L195.993 1512.76 L195.993 1518.64 L191.109 1518.64 L191.109 1512.76 Z" fill="#000000" fill-rule="evenodd" fill-opacity="1" /><path clip-path="url(#clip4600)" d="M 0 0 M211.062 1487.16 Q207.451 1487.16 205.622 1490.72 Q203.817 1494.27 203.817 1501.39 Q203.817 1508.5 205.622 1512.07 Q207.451 1515.61 211.062 1515.61 Q214.697 1515.61 216.502 1512.07 Q218.331 1508.5 218.331 1501.39 Q218.331 1494.27 216.502 1490.72 Q214.697 1487.16 211.062 1487.16 M211.062 1483.45 Q216.872 1483.45 219.928 1488.06 Q223.007 1492.64 223.007 1501.39 Q223.007 1510.12 219.928 1514.73 Q216.872 1519.31 211.062 1519.31 Q205.252 1519.31 202.173 1514.73 Q199.118 1510.12 199.118 1501.39 Q199.118 1492.64 202.173 1488.06 Q205.252 1483.45 211.062 1483.45 Z" fill="#000000" fill-rule="evenodd" fill-opacity="1" /><path clip-path="url(#clip4600)" d="M 0 0 M238.076 1487.16 Q234.465 1487.16 232.636 1490.72 Q230.831 1494.27 230.831 1501.39 Q230.831 1508.5 232.636 1512.07 Q234.465 1515.61 238.076 1515.61 Q241.71 1515.61 243.516 1512.07 Q245.344 1508.5 245.344 1501.39 Q245.344 1494.27 243.516 1490.72 Q241.71 1487.16 238.076 1487.16 M238.076 1483.45 Q243.886 1483.45 246.942 1488.06 Q250.02 1492.64 250.02 1501.39 Q250.02 1510.12 246.942 1514.73 Q243.886 1519.31 238.076 1519.31 Q232.266 1519.31 229.187 1514.73 Q226.132 1510.12 226.132 1501.39 Q226.132 1492.64 229.187 1488.06 Q232.266 1483.45 238.076 1483.45 Z" fill="#000000" fill-rule="evenodd" fill-opacity="1" /><path clip-path="url(#clip4600)" d="M 0 0 M502.253 1487.16 Q498.642 1487.16 496.813 1490.72 Q495.008 1494.27 495.008 1501.39 Q495.008 1508.5 496.813 1512.07 Q498.642 1515.61 502.253 1515.61 Q505.887 1515.61 507.693 1512.07 Q509.521 1508.5 509.521 1501.39 Q509.521 1494.27 507.693 1490.72 Q505.887 1487.16 502.253 1487.16 M502.253 1483.45 Q508.063 1483.45 511.119 1488.06 Q514.197 1492.64 514.197 1501.39 Q514.197 1510.12 511.119 1514.73 Q508.063 1519.31 502.253 1519.31 Q496.443 1519.31 493.364 1514.73 Q490.309 1510.12 490.309 1501.39 Q490.309 1492.64 493.364 1488.06 Q496.443 1483.45 502.253 1483.45 Z" fill="#000000" fill-rule="evenodd" fill-opacity="1" /><path clip-path="url(#clip4600)" d="M 0 0 M519.267 1512.76 L524.151 1512.76 L524.151 1518.64 L519.267 1518.64 L519.267 1512.76 Z" fill="#000000" fill-rule="evenodd" fill-opacity="1" /><path clip-path="url(#clip4600)" d="M 0 0 M533.248 1514.7 L549.567 1514.7 L549.567 1518.64 L527.623 1518.64 L527.623 1514.7 Q530.285 1511.95 534.868 1507.32 Q539.475 1502.67 540.655 1501.33 Q542.901 1498.8 543.78 1497.07 Q544.683 1495.31 544.683 1493.62 Q544.683 1490.86 542.739 1489.13 Q540.818 1487.39 537.716 1487.39 Q535.517 1487.39 533.063 1488.15 Q530.632 1488.92 527.855 1490.47 L527.855 1485.75 Q530.679 1484.61 533.132 1484.03 Q535.586 1483.45 537.623 1483.45 Q542.993 1483.45 546.188 1486.14 Q549.382 1488.83 549.382 1493.32 Q549.382 1495.45 548.572 1497.37 Q547.785 1499.26 545.679 1501.86 Q545.1 1502.53 541.998 1505.75 Q538.896 1508.94 533.248 1514.7 Z" fill="#000000" fill-rule="evenodd" fill-opacity="1" /><path clip-path="url(#clip4600)" d="M 0 0 M554.683 1484.08 L573.04 1484.08 L573.04 1488.02 L558.966 1488.02 L558.966 1496.49 Q559.984 1496.14 561.003 1495.98 Q562.021 1495.79 563.04 1495.79 Q568.827 1495.79 572.206 1498.96 Q575.586 1502.14 575.586 1507.55 Q575.586 1513.13 572.114 1516.23 Q568.641 1519.31 562.322 1519.31 Q560.146 1519.31 557.878 1518.94 Q555.632 1518.57 553.225 1517.83 L553.225 1513.13 Q555.308 1514.26 557.53 1514.82 Q559.753 1515.38 562.229 1515.38 Q566.234 1515.38 568.572 1513.27 Q570.91 1511.16 570.91 1507.55 Q570.91 1503.94 568.572 1501.83 Q566.234 1499.73 562.229 1499.73 Q560.354 1499.73 558.479 1500.14 Q556.628 1500.56 554.683 1501.44 L554.683 1484.08 Z" fill="#000000" fill-rule="evenodd" fill-opacity="1" /><path clip-path="url(#clip4600)" d="M 0 0 M828.316 1487.16 Q824.705 1487.16 822.876 1490.72 Q821.071 1494.27 821.071 1501.39 Q821.071 1508.5 822.876 1512.07 Q824.705 1515.61 828.316 1515.61 Q831.95 1515.61 833.756 1512.07 Q835.585 1508.5 835.585 1501.39 Q835.585 1494.27 833.756 1490.72 Q831.95 1487.16 828.316 1487.16 M828.316 1483.45 Q834.126 1483.45 837.182 1488.06 Q840.26 1492.64 840.26 1501.39 Q840.26 1510.12 837.182 1514.73 Q834.126 1519.31 828.316 1519.31 Q822.506 1519.31 819.427 1514.73 Q816.372 1510.12 816.372 1501.39 Q816.372 1492.64 819.427 1488.06 Q822.506 1483.45 828.316 1483.45 Z" fill="#000000" fill-rule="evenodd" fill-opacity="1" /><path clip-path="url(#clip4600)" d="M 0 0 M845.33 1512.76 L850.214 1512.76 L850.214 1518.64 L845.33 1518.64 L845.33 1512.76 Z" fill="#000000" fill-rule="evenodd" fill-opacity="1" /><path clip-path="url(#clip4600)" d="M 0 0 M855.33 1484.08 L873.686 1484.08 L873.686 1488.02 L859.612 1488.02 L859.612 1496.49 Q860.631 1496.14 861.649 1495.98 Q862.668 1495.79 863.686 1495.79 Q869.473 1495.79 872.853 1498.96 Q876.232 1502.14 876.232 1507.55 Q876.232 1513.13 872.76 1516.23 Q869.288 1519.31 862.969 1519.31 Q860.793 1519.31 858.524 1518.94 Q856.279 1518.57 853.871 1517.83 L853.871 1513.13 Q855.955 1514.26 858.177 1514.82 Q860.399 1515.38 862.876 1515.38 Q866.881 1515.38 869.219 1513.27 Q871.557 1511.16 871.557 1507.55 Q871.557 1503.94 869.219 1501.83 Q866.881 1499.73 862.876 1499.73 Q861.001 1499.73 859.126 1500.14 Q857.274 1500.56 855.33 1501.44 L855.33 1484.08 Z" fill="#000000" fill-rule="evenodd" fill-opacity="1" /><path clip-path="url(#clip4600)" d="M 0 0 M891.302 1487.16 Q887.691 1487.16 885.862 1490.72 Q884.057 1494.27 884.057 1501.39 Q884.057 1508.5 885.862 1512.07 Q887.691 1515.61 891.302 1515.61 Q894.936 1515.61 896.742 1512.07 Q898.57 1508.5 898.57 1501.39 Q898.57 1494.27 896.742 1490.72 Q894.936 1487.16 891.302 1487.16 M891.302 1483.45 Q897.112 1483.45 900.168 1488.06 Q903.246 1492.64 903.246 1501.39 Q903.246 1510.12 900.168 1514.73 Q897.112 1519.31 891.302 1519.31 Q885.492 1519.31 882.413 1514.73 Q879.357 1510.12 879.357 1501.39 Q879.357 1492.64 882.413 1488.06 Q885.492 1483.45 891.302 1483.45 Z" fill="#000000" fill-rule="evenodd" fill-opacity="1" /><path clip-path="url(#clip4600)" d="M 0 0 M1155.63 1487.16 Q1152.02 1487.16 1150.19 1490.72 Q1148.38 1494.27 1148.38 1501.39 Q1148.38 1508.5 1150.19 1512.07 Q1152.02 1515.61 1155.63 1515.61 Q1159.26 1515.61 1161.07 1512.07 Q1162.9 1508.5 1162.9 1501.39 Q1162.9 1494.27 1161.07 1490.72 Q1159.26 1487.16 1155.63 1487.16 M1155.63 1483.45 Q1161.44 1483.45 1164.49 1488.06 Q1167.57 1492.64 1167.57 1501.39 Q1167.57 1510.12 1164.49 1514.73 Q1161.44 1519.31 1155.63 1519.31 Q1149.82 1519.31 1146.74 1514.73 Q1143.68 1510.12 1143.68 1501.39 Q1143.68 1492.64 1146.74 1488.06 Q1149.82 1483.45 1155.63 1483.45 Z" fill="#000000" fill-rule="evenodd" fill-opacity="1" /><path clip-path="url(#clip4600)" d="M 0 0 M1172.64 1512.76 L1177.53 1512.76 L1177.53 1518.64 L1172.64 1518.64 L1172.64 1512.76 Z" fill="#000000" fill-rule="evenodd" fill-opacity="1" /><path clip-path="url(#clip4600)" d="M 0 0 M1181.42 1484.08 L1203.64 1484.08 L1203.64 1486.07 L1191.09 1518.64 L1186.21 1518.64 L1198.01 1488.02 L1181.42 1488.02 L1181.42 1484.08 Z" fill="#000000" fill-rule="evenodd" fill-opacity="1" /><path clip-path="url(#clip4600)" d="M 0 0 M1208.75 1484.08 L1227.11 1484.08 L1227.11 1488.02 L1213.04 1488.02 L1213.04 1496.49 Q1214.05 1496.14 1215.07 1495.98 Q1216.09 1495.79 1217.11 1495.79 Q1222.9 1495.79 1226.28 1498.96 Q1229.66 1502.14 1229.66 1507.55 Q1229.66 1513.13 1226.18 1516.23 Q1222.71 1519.31 1216.39 1519.31 Q1214.22 1519.31 1211.95 1518.94 Q1209.7 1518.57 1207.3 1517.83 L1207.3 1513.13 Q1209.38 1514.26 1211.6 1514.82 Q1213.82 1515.38 1216.3 1515.38 Q1220.3 1515.38 1222.64 1513.27 Q1224.98 1511.16 1224.98 1507.55 Q1224.98 1503.94 1222.64 1501.83 Q1220.3 1499.73 1216.3 1499.73 Q1214.43 1499.73 1212.55 1500.14 Q1210.7 1500.56 1208.75 1501.44 L1208.75 1484.08 Z" fill="#000000" fill-rule="evenodd" fill-opacity="1" /><path clip-path="url(#clip4600)" d="M 0 0 M1471.92 1514.7 L1479.56 1514.7 L1479.56 1488.34 L1471.25 1490.01 L1471.25 1485.75 L1479.52 1484.08 L1484.19 1484.08 L1484.19 1514.7 L1491.83 1514.7 L1491.83 1518.64 L1471.92 1518.64 L1471.92 1514.7 Z" fill="#000000" fill-rule="evenodd" fill-opacity="1" /><path clip-path="url(#clip4600)" d="M 0 0 M1496.9 1512.76 L1501.78 1512.76 L1501.78 1518.64 L1496.9 1518.64 L1496.9 1512.76 Z" fill="#000000" fill-rule="evenodd" fill-opacity="1" /><path clip-path="url(#clip4600)" d="M 0 0 M1516.85 1487.16 Q1513.24 1487.16 1511.41 1490.72 Q1509.61 1494.27 1509.61 1501.39 Q1509.61 1508.5 1511.41 1512.07 Q1513.24 1515.61 1516.85 1515.61 Q1520.49 1515.61 1522.29 1512.07 Q1524.12 1508.5 1524.12 1501.39 Q1524.12 1494.27 1522.29 1490.72 Q1520.49 1487.16 1516.85 1487.16 M1516.85 1483.45 Q1522.66 1483.45 1525.72 1488.06 Q1528.8 1492.64 1528.8 1501.39 Q1528.8 1510.12 1525.72 1514.73 Q1522.66 1519.31 1516.85 1519.31 Q1511.04 1519.31 1507.97 1514.73 Q1504.91 1510.12 1504.91 1501.39 Q1504.91 1492.64 1507.97 1488.06 Q1511.04 1483.45 1516.85 1483.45 Z" fill="#000000" fill-rule="evenodd" fill-opacity="1" /><path clip-path="url(#clip4600)" d="M 0 0 M1543.87 1487.16 Q1540.26 1487.16 1538.43 1490.72 Q1536.62 1494.27 1536.62 1501.39 Q1536.62 1508.5 1538.43 1512.07 Q1540.26 1515.61 1543.87 1515.61 Q1547.5 1515.61 1549.31 1512.07 Q1551.14 1508.5 1551.14 1501.39 Q1551.14 1494.27 1549.31 1490.72 Q1547.5 1487.16 1543.87 1487.16 M1543.87 1483.45 Q1549.68 1483.45 1552.73 1488.06 Q1555.81 1492.64 1555.81 1501.39 Q1555.81 1510.12 1552.73 1514.73 Q1549.68 1519.31 1543.87 1519.31 Q1538.06 1519.31 1534.98 1514.73 Q1531.92 1510.12 1531.92 1501.39 Q1531.92 1492.64 1534.98 1488.06 Q1538.06 1483.45 1543.87 1483.45 Z" fill="#000000" fill-rule="evenodd" fill-opacity="1" /><path clip-path="url(#clip4600)" d="M 0 0 M74.9365 1414.72 Q71.3254 1414.72 69.4967 1418.29 Q67.6912 1421.83 67.6912 1428.96 Q67.6912 1436.07 69.4967 1439.63 Q71.3254 1443.17 74.9365 1443.17 Q78.5707 1443.17 80.3763 1439.63 Q82.205 1436.07 82.205 1428.96 Q82.205 1421.83 80.3763 1418.29 Q78.5707 1414.72 74.9365 1414.72 M74.9365 1411.02 Q80.7467 1411.02 83.8022 1415.63 Q86.8809 1420.21 86.8809 1428.96 Q86.8809 1437.69 83.8022 1442.29 Q80.7467 1446.88 74.9365 1446.88 Q69.1264 1446.88 66.0477 1442.29 Q62.9921 1437.69 62.9921 1428.96 Q62.9921 1420.21 66.0477 1415.63 Q69.1264 1411.02 74.9365 1411.02 Z" fill="#000000" fill-rule="evenodd" fill-opacity="1" /><path clip-path="url(#clip4600)" d="M 0 0 M91.9503 1440.33 L96.8345 1440.33 L96.8345 1446.2 L91.9503 1446.2 L91.9503 1440.33 Z" fill="#000000" fill-rule="evenodd" fill-opacity="1" /><path clip-path="url(#clip4600)" d="M 0 0 M111.904 1414.72 Q108.293 1414.72 106.464 1418.29 Q104.659 1421.83 104.659 1428.96 Q104.659 1436.07 106.464 1439.63 Q108.293 1443.17 111.904 1443.17 Q115.538 1443.17 117.344 1439.63 Q119.172 1436.07 119.172 1428.96 Q119.172 1421.83 117.344 1418.29 Q115.538 1414.72 111.904 1414.72 M111.904 1411.02 Q117.714 1411.02 120.77 1415.63 Q123.848 1420.21 123.848 1428.96 Q123.848 1437.69 120.77 1442.29 Q117.714 1446.88 111.904 1446.88 Q106.094 1446.88 103.015 1442.29 Q99.9595 1437.69 99.9595 1428.96 Q99.9595 1420.21 103.015 1415.63 Q106.094 1411.02 111.904 1411.02 Z" fill="#000000" fill-rule="evenodd" fill-opacity="1" /><path clip-path="url(#clip4600)" d="M 0 0 M138.918 1414.72 Q135.307 1414.72 133.478 1418.29 Q131.672 1421.83 131.672 1428.96 Q131.672 1436.07 133.478 1439.63 Q135.307 1443.17 138.918 1443.17 Q142.552 1443.17 144.357 1439.63 Q146.186 1436.07 146.186 1428.96 Q146.186 1421.83 144.357 1418.29 Q142.552 1414.72 138.918 1414.72 M138.918 1411.02 Q144.728 1411.02 147.783 1415.63 Q150.862 1420.21 150.862 1428.96 Q150.862 1437.69 147.783 1442.29 Q144.728 1446.88 138.918 1446.88 Q133.107 1446.88 130.029 1442.29 Q126.973 1437.69 126.973 1428.96 Q126.973 1420.21 130.029 1415.63 Q133.107 1411.02 138.918 1411.02 Z" fill="#000000" fill-rule="evenodd" fill-opacity="1" /><path clip-path="url(#clip4600)" d="M 0 0 M77.5291 1079.36 Q73.918 1079.36 72.0893 1082.93 Q70.2838 1086.47 70.2838 1093.6 Q70.2838 1100.71 72.0893 1104.27 Q73.918 1107.81 77.5291 1107.81 Q81.1633 1107.81 82.9689 1104.27 Q84.7976 1100.71 84.7976 1093.6 Q84.7976 1086.47 82.9689 1082.93 Q81.1633 1079.36 77.5291 1079.36 M77.5291 1075.66 Q83.3392 1075.66 86.3948 1080.27 Q89.4735 1084.85 89.4735 1093.6 Q89.4735 1102.33 86.3948 1106.93 Q83.3392 1111.52 77.5291 1111.52 Q71.7189 1111.52 68.6402 1106.93 Q65.5847 1102.33 65.5847 1093.6 Q65.5847 1084.85 68.6402 1080.27 Q71.7189 1075.66 77.5291 1075.66 Z" fill="#000000" fill-rule="evenodd" fill-opacity="1" /><path clip-path="url(#clip4600)" d="M 0 0 M94.5429 1104.97 L99.4271 1104.97 L99.4271 1110.85 L94.5429 1110.85 L94.5429 1104.97 Z" fill="#000000" fill-rule="evenodd" fill-opacity="1" /><path clip-path="url(#clip4600)" d="M 0 0 M108.524 1106.91 L124.844 1106.91 L124.844 1110.85 L102.899 1110.85 L102.899 1106.91 Q105.561 1104.16 110.145 1099.53 Q114.751 1094.87 115.932 1093.53 Q118.177 1091.01 119.057 1089.27 Q119.959 1087.51 119.959 1085.82 Q119.959 1083.07 118.015 1081.33 Q116.094 1079.6 112.992 1079.6 Q110.793 1079.6 108.339 1080.36 Q105.909 1081.12 103.131 1082.67 L103.131 1077.95 Q105.955 1076.82 108.409 1076.24 Q110.862 1075.66 112.899 1075.66 Q118.27 1075.66 121.464 1078.35 Q124.658 1081.03 124.658 1085.52 Q124.658 1087.65 123.848 1089.57 Q123.061 1091.47 120.955 1094.06 Q120.376 1094.73 117.274 1097.95 Q114.172 1101.15 108.524 1106.91 Z" fill="#000000" fill-rule="evenodd" fill-opacity="1" /><path clip-path="url(#clip4600)" d="M 0 0 M129.959 1076.29 L148.316 1076.29 L148.316 1080.22 L134.242 1080.22 L134.242 1088.69 Q135.26 1088.35 136.279 1088.18 Q137.297 1088 138.316 1088 Q144.103 1088 147.482 1091.17 Q150.862 1094.34 150.862 1099.76 Q150.862 1105.34 147.39 1108.44 Q143.918 1111.52 137.598 1111.52 Q135.422 1111.52 133.154 1111.15 Q130.908 1110.78 128.501 1110.04 L128.501 1105.34 Q130.584 1106.47 132.807 1107.03 Q135.029 1107.58 137.506 1107.58 Q141.51 1107.58 143.848 1105.48 Q146.186 1103.37 146.186 1099.76 Q146.186 1096.15 143.848 1094.04 Q141.51 1091.93 137.506 1091.93 Q135.631 1091.93 133.756 1092.35 Q131.904 1092.77 129.959 1093.65 L129.959 1076.29 Z" fill="#000000" fill-rule="evenodd" fill-opacity="1" /><path clip-path="url(#clip4600)" d="M 0 0 M75.9319 744.005 Q72.3208 744.005 70.4921 747.569 Q68.6865 751.111 68.6865 758.241 Q68.6865 765.347 70.4921 768.912 Q72.3208 772.454 75.9319 772.454 Q79.5661 772.454 81.3717 768.912 Q83.2004 765.347 83.2004 758.241 Q83.2004 751.111 81.3717 747.569 Q79.5661 744.005 75.9319 744.005 M75.9319 740.301 Q81.742 740.301 84.7976 744.907 Q87.8763 749.491 87.8763 758.241 Q87.8763 766.968 84.7976 771.574 Q81.742 776.157 75.9319 776.157 Q70.1217 776.157 67.043 771.574 Q63.9875 766.968 63.9875 758.241 Q63.9875 749.491 67.043 744.907 Q70.1217 740.301 75.9319 740.301 Z" fill="#000000" fill-rule="evenodd" fill-opacity="1" /><path clip-path="url(#clip4600)" d="M 0 0 M92.9457 769.606 L97.8299 769.606 L97.8299 775.486 L92.9457 775.486 L92.9457 769.606 Z" fill="#000000" fill-rule="evenodd" fill-opacity="1" /><path clip-path="url(#clip4600)" d="M 0 0 M102.946 740.926 L121.302 740.926 L121.302 744.861 L107.228 744.861 L107.228 753.333 Q108.247 752.986 109.265 752.824 Q110.284 752.639 111.302 752.639 Q117.089 752.639 120.469 755.81 Q123.848 758.981 123.848 764.398 Q123.848 769.977 120.376 773.079 Q116.904 776.157 110.584 776.157 Q108.409 776.157 106.14 775.787 Q103.895 775.417 101.487 774.676 L101.487 769.977 Q103.571 771.111 105.793 771.667 Q108.015 772.222 110.492 772.222 Q114.496 772.222 116.834 770.116 Q119.172 768.009 119.172 764.398 Q119.172 760.787 116.834 758.681 Q114.496 756.574 110.492 756.574 Q108.617 756.574 106.742 756.991 Q104.89 757.407 102.946 758.287 L102.946 740.926 Z" fill="#000000" fill-rule="evenodd" fill-opacity="1" /><path clip-path="url(#clip4600)" d="M 0 0 M138.918 744.005 Q135.307 744.005 133.478 747.569 Q131.672 751.111 131.672 758.241 Q131.672 765.347 133.478 768.912 Q135.307 772.454 138.918 772.454 Q142.552 772.454 144.357 768.912 Q146.186 765.347 146.186 758.241 Q146.186 751.111 144.357 747.569 Q142.552 744.005 138.918 744.005 M138.918 740.301 Q144.728 740.301 147.783 744.907 Q150.862 749.491 150.862 758.241 Q150.862 766.968 147.783 771.574 Q144.728 776.157 138.918 776.157 Q133.107 776.157 130.029 771.574 Q126.973 766.968 126.973 758.241 Q126.973 749.491 130.029 744.907 Q133.107 740.301 138.918 740.301 Z" fill="#000000" fill-rule="evenodd" fill-opacity="1" /><path clip-path="url(#clip4600)" d="M 0 0 M76.8346 408.645 Q73.2236 408.645 71.3949 412.21 Q69.5893 415.752 69.5893 422.881 Q69.5893 429.988 71.3949 433.553 Q73.2236 437.094 76.8346 437.094 Q80.4689 437.094 82.2744 433.553 Q84.1031 429.988 84.1031 422.881 Q84.1031 415.752 82.2744 412.21 Q80.4689 408.645 76.8346 408.645 M76.8346 404.942 Q82.6448 404.942 85.7003 409.548 Q88.779 414.131 88.779 422.881 Q88.779 431.608 85.7003 436.215 Q82.6448 440.798 76.8346 440.798 Q71.0245 440.798 67.9458 436.215 Q64.8903 431.608 64.8903 422.881 Q64.8903 414.131 67.9458 409.548 Q71.0245 404.942 76.8346 404.942 Z" fill="#000000" fill-rule="evenodd" fill-opacity="1" /><path clip-path="url(#clip4600)" d="M 0 0 M93.8484 434.247 L98.7327 434.247 L98.7327 440.127 L93.8484 440.127 L93.8484 434.247 Z" fill="#000000" fill-rule="evenodd" fill-opacity="1" /><path clip-path="url(#clip4600)" d="M 0 0 M102.622 405.567 L124.844 405.567 L124.844 407.557 L112.297 440.127 L107.413 440.127 L119.219 409.502 L102.622 409.502 L102.622 405.567 Z" fill="#000000" fill-rule="evenodd" fill-opacity="1" /><path clip-path="url(#clip4600)" d="M 0 0 M129.959 405.567 L148.316 405.567 L148.316 409.502 L134.242 409.502 L134.242 417.974 Q135.26 417.627 136.279 417.465 Q137.297 417.28 138.316 417.28 Q144.103 417.28 147.482 420.451 Q150.862 423.622 150.862 429.039 Q150.862 434.617 147.39 437.719 Q143.918 440.798 137.598 440.798 Q135.422 440.798 133.154 440.428 Q130.908 440.057 128.501 439.316 L128.501 434.617 Q130.584 435.752 132.807 436.307 Q135.029 436.863 137.506 436.863 Q141.51 436.863 143.848 434.756 Q146.186 432.65 146.186 429.039 Q146.186 425.428 143.848 423.321 Q141.51 421.215 137.506 421.215 Q135.631 421.215 133.756 421.631 Q131.904 422.048 129.959 422.928 L129.959 405.567 Z" fill="#000000" fill-rule="evenodd" fill-opacity="1" /><path clip-path="url(#clip4600)" d="M 0 0 M66.9736 100.832 L74.6124 100.832 L74.6124 74.4665 L66.3023 76.1331 L66.3023 71.8739 L74.5661 70.2072 L79.242 70.2072 L79.242 100.832 L86.8809 100.832 L86.8809 104.767 L66.9736 104.767 L66.9736 100.832 Z" fill="#000000" fill-rule="evenodd" fill-opacity="1" /><path clip-path="url(#clip4600)" d="M 0 0 M91.9503 98.8876 L96.8345 98.8876 L96.8345 104.767 L91.9503 104.767 L91.9503 98.8876 Z" fill="#000000" fill-rule="evenodd" fill-opacity="1" /><path clip-path="url(#clip4600)" d="M 0 0 M111.904 73.2859 Q108.293 73.2859 106.464 76.8507 Q104.659 80.3924 104.659 87.5219 Q104.659 94.6284 106.464 98.1932 Q108.293 101.735 111.904 101.735 Q115.538 101.735 117.344 98.1932 Q119.172 94.6284 119.172 87.5219 Q119.172 80.3924 117.344 76.8507 Q115.538 73.2859 111.904 73.2859 M111.904 69.5822 Q117.714 69.5822 120.77 74.1887 Q123.848 78.772 123.848 87.5219 Q123.848 96.2487 120.77 100.855 Q117.714 105.439 111.904 105.439 Q106.094 105.439 103.015 100.855 Q99.9595 96.2487 99.9595 87.5219 Q99.9595 78.772 103.015 74.1887 Q106.094 69.5822 111.904 69.5822 Z" fill="#000000" fill-rule="evenodd" fill-opacity="1" /><path clip-path="url(#clip4600)" d="M 0 0 M138.918 73.2859 Q135.307 73.2859 133.478 76.8507 Q131.672 80.3924 131.672 87.5219 Q131.672 94.6284 133.478 98.1932 Q135.307 101.735 138.918 101.735 Q142.552 101.735 144.357 98.1932 Q146.186 94.6284 146.186 87.5219 Q146.186 80.3924 144.357 76.8507 Q142.552 73.2859 138.918 73.2859 M138.918 69.5822 Q144.728 69.5822 147.783 74.1887 Q150.862 78.772 150.862 87.5219 Q150.862 96.2487 147.783 100.855 Q144.728 105.439 138.918 105.439 Q133.107 105.439 130.029 100.855 Q126.973 96.2487 126.973 87.5219 Q126.973 78.772 130.029 74.1887 Q133.107 69.5822 138.918 69.5822 Z" fill="#000000" fill-rule="evenodd" fill-opacity="1" /><polyline clip-path="url(#clip4602)" style="stroke:#000000; stroke-width:4; stroke-opacity:1; fill:none" points="
  206.085,87.4872 218.854,87.5512 336.915,94.22 407.865,103.559 467.852,114.648 533.015,130.101 593.09,147.6 657.496,169.977 732.117,200.849 798.431,233.057 
  856.583,265.301 919.984,305.11 983.761,350.583 1054.28,408.075 1121.37,471.017 1191.13,546.861 1249.85,621.075 1285.7,672.291 1321.55,729.166 1355.25,789.136 
  1388.94,857.429 1415.94,920.379 1442.93,994.073 1456.43,1036.8 1469.92,1085.36 1483.42,1142.68 1496.92,1215.74 1501.07,1244.15 1505.22,1277.94 1509.38,1322.08 
  1513.53,1428.92 
  "/>
<circle clip-path="url(#clip4602)" cx="1065.42" cy="644.578" r="14" fill="#ff0000" fill-rule="evenodd" fill-opacity="1" stroke="#000000" stroke-opacity="1" stroke-width="3.2"/>
<circle clip-path="url(#clip4602)" cx="1304.15" cy="1259.58" r="14" fill="#ff0000" fill-rule="evenodd" fill-opacity="1" stroke="#000000" stroke-opacity="1" stroke-width="3.2"/>
<circle clip-path="url(#clip4602)" cx="749.201" cy="1150.9" r="14" fill="#ff0000" fill-rule="evenodd" fill-opacity="1" stroke="#000000" stroke-opacity="1" stroke-width="3.2"/>
<circle clip-path="url(#clip4602)" cx="1042.01" cy="1244.29" r="14" fill="#ff0000" fill-rule="evenodd" fill-opacity="1" stroke="#000000" stroke-opacity="1" stroke-width="3.2"/>
<circle clip-path="url(#clip4602)" cx="221.638" cy="625.527" r="14" fill="#ff0000" fill-rule="evenodd" fill-opacity="1" stroke="#000000" stroke-opacity="1" stroke-width="3.2"/>
<circle clip-path="url(#clip4602)" cx="248.297" cy="948.226" r="14" fill="#ff0000" fill-rule="evenodd" fill-opacity="1" stroke="#000000" stroke-opacity="1" stroke-width="3.2"/>
<circle clip-path="url(#clip4602)" cx="404.201" cy="104.135" r="14" fill="#ff0000" fill-rule="evenodd" fill-opacity="1" stroke="#000000" stroke-opacity="1" stroke-width="3.2"/>
<circle clip-path="url(#clip4602)" cx="1229.03" cy="1250.9" r="14" fill="#ff0000" fill-rule="evenodd" fill-opacity="1" stroke="#000000" stroke-opacity="1" stroke-width="3.2"/>
<circle clip-path="url(#clip4602)" cx="580.853" cy="941.588" r="14" fill="#ff0000" fill-rule="evenodd" fill-opacity="1" stroke="#000000" stroke-opacity="1" stroke-width="3.2"/>
<circle clip-path="url(#clip4602)" cx="1227.95" cy="1382.7" r="14" fill="#ff0000" fill-rule="evenodd" fill-opacity="1" stroke="#000000" stroke-opacity="1" stroke-width="3.2"/>
<circle clip-path="url(#clip4602)" cx="918.559" cy="635.389" r="14" fill="#ff0000" fill-rule="evenodd" fill-opacity="1" stroke="#000000" stroke-opacity="1" stroke-width="3.2"/>
<circle clip-path="url(#clip4602)" cx="342.651" cy="705.059" r="14" fill="#ff0000" fill-rule="evenodd" fill-opacity="1" stroke="#000000" stroke-opacity="1" stroke-width="3.2"/>
<circle clip-path="url(#clip4602)" cx="1045.29" cy="478.394" r="14" fill="#ff0000" fill-rule="evenodd" fill-opacity="1" stroke="#000000" stroke-opacity="1" stroke-width="3.2"/>
<circle clip-path="url(#clip4602)" cx="858.656" cy="310.432" r="14" fill="#ff0000" fill-rule="evenodd" fill-opacity="1" stroke="#000000" stroke-opacity="1" stroke-width="3.2"/>
<circle clip-path="url(#clip4602)" cx="483.773" cy="491.835" r="14" fill="#ff0000" fill-rule="evenodd" fill-opacity="1" stroke="#000000" stroke-opacity="1" stroke-width="3.2"/>
<circle clip-path="url(#clip4602)" cx="1265.49" cy="1070.7" r="14" fill="#ff0000" fill-rule="evenodd" fill-opacity="1" stroke="#000000" stroke-opacity="1" stroke-width="3.2"/>
<circle clip-path="url(#clip4602)" cx="1079.47" cy="850.984" r="14" fill="#ff0000" fill-rule="evenodd" fill-opacity="1" stroke="#000000" stroke-opacity="1" stroke-width="3.2"/>
<circle clip-path="url(#clip4602)" cx="230.281" cy="237.169" r="14" fill="#ff0000" fill-rule="evenodd" fill-opacity="1" stroke="#000000" stroke-opacity="1" stroke-width="3.2"/>
<circle clip-path="url(#clip4602)" cx="1081.64" cy="507.626" r="14" fill="#ff0000" fill-rule="evenodd" fill-opacity="1" stroke="#000000" stroke-opacity="1" stroke-width="3.2"/>
<circle clip-path="url(#clip4602)" cx="213.411" cy="703.645" r="14" fill="#ff0000" fill-rule="evenodd" fill-opacity="1" stroke="#000000" stroke-opacity="1" stroke-width="3.2"/>
<circle clip-path="url(#clip4602)" cx="960.073" cy="1014.85" r="14" fill="#ff0000" fill-rule="evenodd" fill-opacity="1" stroke="#000000" stroke-opacity="1" stroke-width="3.2"/>
<circle clip-path="url(#clip4602)" cx="305.599" cy="1236.33" r="14" fill="#ff0000" fill-rule="evenodd" fill-opacity="1" stroke="#000000" stroke-opacity="1" stroke-width="3.2"/>
<circle clip-path="url(#clip4602)" cx="1359.49" cy="1356.13" r="14" fill="#ff0000" fill-rule="evenodd" fill-opacity="1" stroke="#000000" stroke-opacity="1" stroke-width="3.2"/>
<circle clip-path="url(#clip4602)" cx="336.605" cy="597.91" r="14" fill="#ff0000" fill-rule="evenodd" fill-opacity="1" stroke="#000000" stroke-opacity="1" stroke-width="3.2"/>
<circle clip-path="url(#clip4602)" cx="764.491" cy="222.281" r="14" fill="#ff0000" fill-rule="evenodd" fill-opacity="1" stroke="#000000" stroke-opacity="1" stroke-width="3.2"/>
<circle clip-path="url(#clip4602)" cx="422.921" cy="445.505" r="14" fill="#ff0000" fill-rule="evenodd" fill-opacity="1" stroke="#000000" stroke-opacity="1" stroke-width="3.2"/>
<circle clip-path="url(#clip4602)" cx="583.756" cy="904.413" r="14" fill="#ff0000" fill-rule="evenodd" fill-opacity="1" stroke="#000000" stroke-opacity="1" stroke-width="3.2"/>
<circle clip-path="url(#clip4602)" cx="1323.47" cy="1041.41" r="14" fill="#ff0000" fill-rule="evenodd" fill-opacity="1" stroke="#000000" stroke-opacity="1" stroke-width="3.2"/>
<circle clip-path="url(#clip4602)" cx="1196.74" cy="1014.38" r="14" fill="#ff0000" fill-rule="evenodd" fill-opacity="1" stroke="#000000" stroke-opacity="1" stroke-width="3.2"/>
<circle clip-path="url(#clip4602)" cx="1203.38" cy="676.628" r="14" fill="#ff0000" fill-rule="evenodd" fill-opacity="1" stroke="#000000" stroke-opacity="1" stroke-width="3.2"/>
<circle clip-path="url(#clip4602)" cx="281.584" cy="728.615" r="14" fill="#ff0000" fill-rule="evenodd" fill-opacity="1" stroke="#000000" stroke-opacity="1" stroke-width="3.2"/>
<circle clip-path="url(#clip4602)" cx="726.67" cy="486.037" r="14" fill="#ff0000" fill-rule="evenodd" fill-opacity="1" stroke="#000000" stroke-opacity="1" stroke-width="3.2"/>
<circle clip-path="url(#clip4602)" cx="1412.7" cy="980.608" r="14" fill="#ff0000" fill-rule="evenodd" fill-opacity="1" stroke="#000000" stroke-opacity="1" stroke-width="3.2"/>
<circle clip-path="url(#clip4602)" cx="419.248" cy="679.12" r="14" fill="#ff0000" fill-rule="evenodd" fill-opacity="1" stroke="#000000" stroke-opacity="1" stroke-width="3.2"/>
<circle clip-path="url(#clip4602)" cx="561.098" cy="1333.81" r="14" fill="#ff0000" fill-rule="evenodd" fill-opacity="1" stroke="#000000" stroke-opacity="1" stroke-width="3.2"/>
<circle clip-path="url(#clip4602)" cx="700.057" cy="1042.29" r="14" fill="#ff0000" fill-rule="evenodd" fill-opacity="1" stroke="#000000" stroke-opacity="1" stroke-width="3.2"/>
<circle clip-path="url(#clip4602)" cx="1090.82" cy="1215.12" r="14" fill="#ff0000" fill-rule="evenodd" fill-opacity="1" stroke="#000000" stroke-opacity="1" stroke-width="3.2"/>
<circle clip-path="url(#clip4602)" cx="1336.13" cy="1259.02" r="14" fill="#ff0000" fill-rule="evenodd" fill-opacity="1" stroke="#000000" stroke-opacity="1" stroke-width="3.2"/>
<circle clip-path="url(#clip4602)" cx="666.617" cy="321.961" r="14" fill="#ff0000" fill-rule="evenodd" fill-opacity="1" stroke="#000000" stroke-opacity="1" stroke-width="3.2"/>
<circle clip-path="url(#clip4602)" cx="920.762" cy="499.482" r="14" fill="#ff0000" fill-rule="evenodd" fill-opacity="1" stroke="#000000" stroke-opacity="1" stroke-width="3.2"/>
<circle clip-path="url(#clip4602)" cx="1366.52" cy="1325.27" r="14" fill="#ff0000" fill-rule="evenodd" fill-opacity="1" stroke="#000000" stroke-opacity="1" stroke-width="3.2"/>
<circle clip-path="url(#clip4602)" cx="684.282" cy="1381.26" r="14" fill="#ff0000" fill-rule="evenodd" fill-opacity="1" stroke="#000000" stroke-opacity="1" stroke-width="3.2"/>
<circle clip-path="url(#clip4602)" cx="1214.53" cy="1023.28" r="14" fill="#ff0000" fill-rule="evenodd" fill-opacity="1" stroke="#000000" stroke-opacity="1" stroke-width="3.2"/>
<circle clip-path="url(#clip4602)" cx="1237.25" cy="1273.8" r="14" fill="#ff0000" fill-rule="evenodd" fill-opacity="1" stroke="#000000" stroke-opacity="1" stroke-width="3.2"/>
<circle clip-path="url(#clip4602)" cx="233.565" cy="1226.94" r="14" fill="#ff0000" fill-rule="evenodd" fill-opacity="1" stroke="#000000" stroke-opacity="1" stroke-width="3.2"/>
<circle clip-path="url(#clip4602)" cx="1011.07" cy="709.666" r="14" fill="#ff0000" fill-rule="evenodd" fill-opacity="1" stroke="#000000" stroke-opacity="1" stroke-width="3.2"/>
<circle clip-path="url(#clip4602)" cx="312.001" cy="327.394" r="14" fill="#ff0000" fill-rule="evenodd" fill-opacity="1" stroke="#000000" stroke-opacity="1" stroke-width="3.2"/>
<circle clip-path="url(#clip4602)" cx="1019.88" cy="825.239" r="14" fill="#ff0000" fill-rule="evenodd" fill-opacity="1" stroke="#000000" stroke-opacity="1" stroke-width="3.2"/>
<circle clip-path="url(#clip4602)" cx="667.303" cy="375.79" r="14" fill="#ff0000" fill-rule="evenodd" fill-opacity="1" stroke="#000000" stroke-opacity="1" stroke-width="3.2"/>
<circle clip-path="url(#clip4602)" cx="1311.06" cy="1394.85" r="14" fill="#ff0000" fill-rule="evenodd" fill-opacity="1" stroke="#000000" stroke-opacity="1" stroke-width="3.2"/>
<circle clip-path="url(#clip4602)" cx="251.847" cy="1029.41" r="14" fill="#ff0000" fill-rule="evenodd" fill-opacity="1" stroke="#000000" stroke-opacity="1" stroke-width="3.2"/>
<circle clip-path="url(#clip4602)" cx="300.419" cy="378.429" r="14" fill="#ff0000" fill-rule="evenodd" fill-opacity="1" stroke="#000000" stroke-opacity="1" stroke-width="3.2"/>
<circle clip-path="url(#clip4602)" cx="621.899" cy="634.518" r="14" fill="#ff0000" fill-rule="evenodd" fill-opacity="1" stroke="#000000" stroke-opacity="1" stroke-width="3.2"/>
<circle clip-path="url(#clip4602)" cx="634.879" cy="937.217" r="14" fill="#ff0000" fill-rule="evenodd" fill-opacity="1" stroke="#000000" stroke-opacity="1" stroke-width="3.2"/>
<circle clip-path="url(#clip4602)" cx="307.524" cy="522.61" r="14" fill="#ff0000" fill-rule="evenodd" fill-opacity="1" stroke="#000000" stroke-opacity="1" stroke-width="3.2"/>
<circle clip-path="url(#clip4602)" cx="1027.4" cy="599.59" r="14" fill="#ff0000" fill-rule="evenodd" fill-opacity="1" stroke="#000000" stroke-opacity="1" stroke-width="3.2"/>
<circle clip-path="url(#clip4602)" cx="482.476" cy="489.165" r="14" fill="#ff0000" fill-rule="evenodd" fill-opacity="1" stroke="#000000" stroke-opacity="1" stroke-width="3.2"/>
<circle clip-path="url(#clip4602)" cx="519.7" cy="975.989" r="14" fill="#ff0000" fill-rule="evenodd" fill-opacity="1" stroke="#000000" stroke-opacity="1" stroke-width="3.2"/>
<circle clip-path="url(#clip4602)" cx="410.373" cy="603.629" r="14" fill="#ff0000" fill-rule="evenodd" fill-opacity="1" stroke="#000000" stroke-opacity="1" stroke-width="3.2"/>
<circle clip-path="url(#clip4602)" cx="700.146" cy="301.344" r="14" fill="#ff0000" fill-rule="evenodd" fill-opacity="1" stroke="#000000" stroke-opacity="1" stroke-width="3.2"/>
<circle clip-path="url(#clip4602)" cx="1209.67" cy="1010.85" r="14" fill="#ff0000" fill-rule="evenodd" fill-opacity="1" stroke="#000000" stroke-opacity="1" stroke-width="3.2"/>
<circle clip-path="url(#clip4602)" cx="679.863" cy="711.194" r="14" fill="#ff0000" fill-rule="evenodd" fill-opacity="1" stroke="#000000" stroke-opacity="1" stroke-width="3.2"/>
<circle clip-path="url(#clip4602)" cx="339.627" cy="236.615" r="14" fill="#ff0000" fill-rule="evenodd" fill-opacity="1" stroke="#000000" stroke-opacity="1" stroke-width="3.2"/>
<circle clip-path="url(#clip4602)" cx="393.161" cy="1396.13" r="14" fill="#ff0000" fill-rule="evenodd" fill-opacity="1" stroke="#000000" stroke-opacity="1" stroke-width="3.2"/>
<circle clip-path="url(#clip4602)" cx="1278.87" cy="1396.16" r="14" fill="#ff0000" fill-rule="evenodd" fill-opacity="1" stroke="#000000" stroke-opacity="1" stroke-width="3.2"/>
<circle clip-path="url(#clip4602)" cx="461.073" cy="400.012" r="14" fill="#ff0000" fill-rule="evenodd" fill-opacity="1" stroke="#000000" stroke-opacity="1" stroke-width="3.2"/>
<circle clip-path="url(#clip4602)" cx="474.275" cy="437.834" r="14" fill="#ff0000" fill-rule="evenodd" fill-opacity="1" stroke="#000000" stroke-opacity="1" stroke-width="3.2"/>
<circle clip-path="url(#clip4602)" cx="753.664" cy="780.187" r="14" fill="#ff0000" fill-rule="evenodd" fill-opacity="1" stroke="#000000" stroke-opacity="1" stroke-width="3.2"/>
<circle clip-path="url(#clip4602)" cx="652.636" cy="1411.26" r="14" fill="#ff0000" fill-rule="evenodd" fill-opacity="1" stroke="#000000" stroke-opacity="1" stroke-width="3.2"/>
<circle clip-path="url(#clip4602)" cx="429.792" cy="271.163" r="14" fill="#ff0000" fill-rule="evenodd" fill-opacity="1" stroke="#000000" stroke-opacity="1" stroke-width="3.2"/>
<circle clip-path="url(#clip4602)" cx="471.24" cy="1061.78" r="14" fill="#ff0000" fill-rule="evenodd" fill-opacity="1" stroke="#000000" stroke-opacity="1" stroke-width="3.2"/>
<circle clip-path="url(#clip4602)" cx="288.242" cy="1402.61" r="14" fill="#ff0000" fill-rule="evenodd" fill-opacity="1" stroke="#000000" stroke-opacity="1" stroke-width="3.2"/>
<circle clip-path="url(#clip4602)" cx="759.261" cy="897.811" r="14" fill="#ff0000" fill-rule="evenodd" fill-opacity="1" stroke="#000000" stroke-opacity="1" stroke-width="3.2"/>
<circle clip-path="url(#clip4602)" cx="958.695" cy="1006.51" r="14" fill="#ff0000" fill-rule="evenodd" fill-opacity="1" stroke="#000000" stroke-opacity="1" stroke-width="3.2"/>
<circle clip-path="url(#clip4602)" cx="989.222" cy="438.111" r="14" fill="#ff0000" fill-rule="evenodd" fill-opacity="1" stroke="#000000" stroke-opacity="1" stroke-width="3.2"/>
<circle clip-path="url(#clip4602)" cx="458.831" cy="879.706" r="14" fill="#ff0000" fill-rule="evenodd" fill-opacity="1" stroke="#000000" stroke-opacity="1" stroke-width="3.2"/>
<circle clip-path="url(#clip4602)" cx="371.793" cy="614.111" r="14" fill="#ff0000" fill-rule="evenodd" fill-opacity="1" stroke="#000000" stroke-opacity="1" stroke-width="3.2"/>
<circle clip-path="url(#clip4602)" cx="1408.68" cy="1124.77" r="14" fill="#ff0000" fill-rule="evenodd" fill-opacity="1" stroke="#000000" stroke-opacity="1" stroke-width="3.2"/>
<circle clip-path="url(#clip4602)" cx="303.568" cy="727.694" r="14" fill="#ff0000" fill-rule="evenodd" fill-opacity="1" stroke="#000000" stroke-opacity="1" stroke-width="3.2"/>
<circle clip-path="url(#clip4602)" cx="749.246" cy="728.949" r="14" fill="#ff0000" fill-rule="evenodd" fill-opacity="1" stroke="#000000" stroke-opacity="1" stroke-width="3.2"/>
<circle clip-path="url(#clip4602)" cx="283.585" cy="209.931" r="14" fill="#ff0000" fill-rule="evenodd" fill-opacity="1" stroke="#000000" stroke-opacity="1" stroke-width="3.2"/>
<circle clip-path="url(#clip4602)" cx="275.573" cy="294.127" r="14" fill="#ff0000" fill-rule="evenodd" fill-opacity="1" stroke="#000000" stroke-opacity="1" stroke-width="3.2"/>
<circle clip-path="url(#clip4602)" cx="305.707" cy="1426.79" r="14" fill="#ff0000" fill-rule="evenodd" fill-opacity="1" stroke="#000000" stroke-opacity="1" stroke-width="3.2"/>
<circle clip-path="url(#clip4602)" cx="235.842" cy="653.997" r="14" fill="#ff0000" fill-rule="evenodd" fill-opacity="1" stroke="#000000" stroke-opacity="1" stroke-width="3.2"/>
<circle clip-path="url(#clip4602)" cx="293.724" cy="803.199" r="14" fill="#ff0000" fill-rule="evenodd" fill-opacity="1" stroke="#000000" stroke-opacity="1" stroke-width="3.2"/>
<circle clip-path="url(#clip4602)" cx="1041.68" cy="454.965" r="14" fill="#ff0000" fill-rule="evenodd" fill-opacity="1" stroke="#000000" stroke-opacity="1" stroke-width="3.2"/>
<circle clip-path="url(#clip4602)" cx="357.688" cy="1145.35" r="14" fill="#ff0000" fill-rule="evenodd" fill-opacity="1" stroke="#000000" stroke-opacity="1" stroke-width="3.2"/>
<circle clip-path="url(#clip4602)" cx="681.856" cy="1020.25" r="14" fill="#ff0000" fill-rule="evenodd" fill-opacity="1" stroke="#000000" stroke-opacity="1" stroke-width="3.2"/>
<circle clip-path="url(#clip4602)" cx="296.236" cy="744.659" r="14" fill="#ff0000" fill-rule="evenodd" fill-opacity="1" stroke="#000000" stroke-opacity="1" stroke-width="3.2"/>
<circle clip-path="url(#clip4602)" cx="836.17" cy="515.1" r="14" fill="#ff0000" fill-rule="evenodd" fill-opacity="1" stroke="#000000" stroke-opacity="1" stroke-width="3.2"/>
<circle clip-path="url(#clip4602)" cx="424.034" cy="521.55" r="14" fill="#ff0000" fill-rule="evenodd" fill-opacity="1" stroke="#000000" stroke-opacity="1" stroke-width="3.2"/>
<circle clip-path="url(#clip4602)" cx="514.535" cy="1134.57" r="14" fill="#ff0000" fill-rule="evenodd" fill-opacity="1" stroke="#000000" stroke-opacity="1" stroke-width="3.2"/>
<circle clip-path="url(#clip4602)" cx="657.477" cy="1026.21" r="14" fill="#ff0000" fill-rule="evenodd" fill-opacity="1" stroke="#000000" stroke-opacity="1" stroke-width="3.2"/>
<circle clip-path="url(#clip4602)" cx="750.836" cy="874.682" r="14" fill="#ff0000" fill-rule="evenodd" fill-opacity="1" stroke="#000000" stroke-opacity="1" stroke-width="3.2"/>
<circle clip-path="url(#clip4602)" cx="477.107" cy="778.714" r="14" fill="#ff0000" fill-rule="evenodd" fill-opacity="1" stroke="#000000" stroke-opacity="1" stroke-width="3.2"/>
<circle clip-path="url(#clip4602)" cx="333.581" cy="1343.59" r="14" fill="#ff0000" fill-rule="evenodd" fill-opacity="1" stroke="#000000" stroke-opacity="1" stroke-width="3.2"/>
<circle clip-path="url(#clip4602)" cx="682.815" cy="1398.03" r="14" fill="#ff0000" fill-rule="evenodd" fill-opacity="1" stroke="#000000" stroke-opacity="1" stroke-width="3.2"/>
<circle clip-path="url(#clip4602)" cx="541.614" cy="221.268" r="14" fill="#ff0000" fill-rule="evenodd" fill-opacity="1" stroke="#000000" stroke-opacity="1" stroke-width="3.2"/>
<circle clip-path="url(#clip4602)" cx="817.206" cy="535.618" r="14" fill="#ff0000" fill-rule="evenodd" fill-opacity="1" stroke="#000000" stroke-opacity="1" stroke-width="3.2"/>
<circle clip-path="url(#clip4602)" cx="362.834" cy="1267.65" r="14" fill="#ff0000" fill-rule="evenodd" fill-opacity="1" stroke="#000000" stroke-opacity="1" stroke-width="3.2"/>
<circle clip-path="url(#clip4602)" cx="800.995" cy="158.17" r="14" fill="#0000ff" fill-rule="evenodd" fill-opacity="1" stroke="#000000" stroke-opacity="1" stroke-width="3.2"/>
<circle clip-path="url(#clip4602)" cx="694.971" cy="159.457" r="14" fill="#0000ff" fill-rule="evenodd" fill-opacity="1" stroke="#000000" stroke-opacity="1" stroke-width="3.2"/>
<circle clip-path="url(#clip4602)" cx="984.452" cy="321.131" r="14" fill="#0000ff" fill-rule="evenodd" fill-opacity="1" stroke="#000000" stroke-opacity="1" stroke-width="3.2"/>
<circle clip-path="url(#clip4602)" cx="1357.68" cy="492.387" r="14" fill="#0000ff" fill-rule="evenodd" fill-opacity="1" stroke="#000000" stroke-opacity="1" stroke-width="3.2"/>
<circle clip-path="url(#clip4602)" cx="1266.65" cy="503.029" r="14" fill="#0000ff" fill-rule="evenodd" fill-opacity="1" stroke="#000000" stroke-opacity="1" stroke-width="3.2"/>
<circle clip-path="url(#clip4602)" cx="1216.02" cy="465.753" r="14" fill="#0000ff" fill-rule="evenodd" fill-opacity="1" stroke="#000000" stroke-opacity="1" stroke-width="3.2"/>
<circle clip-path="url(#clip4602)" cx="1406.74" cy="758.036" r="14" fill="#0000ff" fill-rule="evenodd" fill-opacity="1" stroke="#000000" stroke-opacity="1" stroke-width="3.2"/>
<circle clip-path="url(#clip4602)" cx="1440.75" cy="568.599" r="14" fill="#0000ff" fill-rule="evenodd" fill-opacity="1" stroke="#000000" stroke-opacity="1" stroke-width="3.2"/>
<circle clip-path="url(#clip4602)" cx="807.832" cy="92.6103" r="14" fill="#0000ff" fill-rule="evenodd" fill-opacity="1" stroke="#000000" stroke-opacity="1" stroke-width="3.2"/>
<circle clip-path="url(#clip4602)" cx="1112" cy="260.974" r="14" fill="#0000ff" fill-rule="evenodd" fill-opacity="1" stroke="#000000" stroke-opacity="1" stroke-width="3.2"/>
<circle clip-path="url(#clip4602)" cx="1463.23" cy="952.399" r="14" fill="#0000ff" fill-rule="evenodd" fill-opacity="1" stroke="#000000" stroke-opacity="1" stroke-width="3.2"/>
<circle clip-path="url(#clip4602)" cx="1110.88" cy="103.08" r="14" fill="#0000ff" fill-rule="evenodd" fill-opacity="1" stroke="#000000" stroke-opacity="1" stroke-width="3.2"/>
<circle clip-path="url(#clip4602)" cx="862.251" cy="235.373" r="14" fill="#0000ff" fill-rule="evenodd" fill-opacity="1" stroke="#000000" stroke-opacity="1" stroke-width="3.2"/>
<circle clip-path="url(#clip4602)" cx="1164.76" cy="475.903" r="14" fill="#0000ff" fill-rule="evenodd" fill-opacity="1" stroke="#000000" stroke-opacity="1" stroke-width="3.2"/>
<circle clip-path="url(#clip4602)" cx="1453.96" cy="680.493" r="14" fill="#0000ff" fill-rule="evenodd" fill-opacity="1" stroke="#000000" stroke-opacity="1" stroke-width="3.2"/>
<circle clip-path="url(#clip4602)" cx="474.836" cy="96.9242" r="14" fill="#0000ff" fill-rule="evenodd" fill-opacity="1" stroke="#000000" stroke-opacity="1" stroke-width="3.2"/>
<circle clip-path="url(#clip4602)" cx="923.247" cy="213.034" r="14" fill="#0000ff" fill-rule="evenodd" fill-opacity="1" stroke="#000000" stroke-opacity="1" stroke-width="3.2"/>
<circle clip-path="url(#clip4602)" cx="1412.86" cy="652.237" r="14" fill="#0000ff" fill-rule="evenodd" fill-opacity="1" stroke="#000000" stroke-opacity="1" stroke-width="3.2"/>
<circle clip-path="url(#clip4602)" cx="971.18" cy="136.257" r="14" fill="#0000ff" fill-rule="evenodd" fill-opacity="1" stroke="#000000" stroke-opacity="1" stroke-width="3.2"/>
<circle clip-path="url(#clip4602)" cx="1361.65" cy="358.265" r="14" fill="#0000ff" fill-rule="evenodd" fill-opacity="1" stroke="#000000" stroke-opacity="1" stroke-width="3.2"/>
<circle clip-path="url(#clip4602)" cx="1387.74" cy="560.137" r="14" fill="#0000ff" fill-rule="evenodd" fill-opacity="1" stroke="#000000" stroke-opacity="1" stroke-width="3.2"/>
<circle clip-path="url(#clip4602)" cx="859.028" cy="258.022" r="14" fill="#0000ff" fill-rule="evenodd" fill-opacity="1" stroke="#000000" stroke-opacity="1" stroke-width="3.2"/>
<circle clip-path="url(#clip4602)" cx="1147.54" cy="491.006" r="14" fill="#0000ff" fill-rule="evenodd" fill-opacity="1" stroke="#000000" stroke-opacity="1" stroke-width="3.2"/>
<circle clip-path="url(#clip4602)" cx="1472.71" cy="203.33" r="14" fill="#0000ff" fill-rule="evenodd" fill-opacity="1" stroke="#000000" stroke-opacity="1" stroke-width="3.2"/>
<circle clip-path="url(#clip4602)" cx="1438.32" cy="232.415" r="14" fill="#0000ff" fill-rule="evenodd" fill-opacity="1" stroke="#000000" stroke-opacity="1" stroke-width="3.2"/>
<circle clip-path="url(#clip4602)" cx="1472.77" cy="115.509" r="14" fill="#0000ff" fill-rule="evenodd" fill-opacity="1" stroke="#000000" stroke-opacity="1" stroke-width="3.2"/>
<circle clip-path="url(#clip4602)" cx="1014.14" cy="94.0189" r="14" fill="#0000ff" fill-rule="evenodd" fill-opacity="1" stroke="#000000" stroke-opacity="1" stroke-width="3.2"/>
</svg>
